<svg width="17" height="16" viewBox="0 0 17 16" fill="none" xmlns="http://www.w3.org/2000/svg">
<g clip-path="url(#clip0_1_167)">
<path d="M4.58988 7.2L1.86988 9.928C1.72034 10.0775 1.60171 10.2549 1.52078 10.4503C1.43985 10.6456 1.39819 10.855 1.39819 11.0664C1.39819 11.2778 1.43985 11.4872 1.52078 11.6825C1.60171 11.8779 1.72034 12.0553 1.86988 12.2048L4.38508 14.728C4.53455 14.8775 4.71202 14.9962 4.90735 15.0771C5.10268 15.158 5.31204 15.1997 5.52347 15.1997C5.73491 15.1997 5.94427 15.158 6.1396 15.0771C6.33493 14.9962 6.5124 14.8775 6.66188 14.728L9.38988 12M12.5899 8.8L15.3179 6.08C15.4674 5.93053 15.586 5.75306 15.667 5.55773C15.7479 5.3624 15.7896 5.15303 15.7896 4.9416C15.7896 4.73017 15.7479 4.52081 15.667 4.32548C15.586 4.13015 15.4674 3.95268 15.3179 3.8032L12.7947 1.28C12.6452 1.13046 12.4677 1.01184 12.2724 0.930908C12.0771 0.849975 11.8677 0.808319 11.6563 0.808319C11.4448 0.808319 11.2355 0.849975 11.0402 0.930908C10.8448 1.01184 10.6673 1.13046 10.5179 1.28L7.78988 4M6.18988 10.4L10.9899 5.6" stroke="#1A1A1A" stroke-width="1.28" stroke-linecap="round" stroke-linejoin="round"/>
</g>
<defs>
<clipPath id="clip0_1_167">
<rect width="16" height="16" fill="white" transform="translate(0.589844)"/>
</clipPath>
</defs>
</svg>
